<svg xmlns="http://www.w3.org/2000/svg" viewBox="0 0 64 48" shape-rendering="crispEdges">
  <rect width="64" height="48" fill="none"/>
  <ellipse cx="32" cy="42" rx="20" ry="4" fill="#1a1208" opacity="0.35"/>
  <!-- legs -->
  <rect x="14" y="32" width="8" height="10" fill="#2a1e14"/>
  <rect x="26" y="32" width="8" height="10" fill="#2a1e14"/>
  <rect x="38" y="32" width="8" height="10" fill="#2a1e14"/>
  <rect x="48" y="32" width="8" height="10" fill="#2a1e14"/>
  <!-- body -->
  <rect x="10" y="18" width="44" height="18" fill="#3a2820"/>
  <rect x="14" y="16" width="36" height="8" fill="#4a3428"/>
  <!-- head -->
  <rect x="42" y="12" width="16" height="16" fill="#3a2820"/>
  <!-- ears -->
  <circle cx="46" cy="12" r="5" fill="#3a2820"/>
  <circle cx="56" cy="12" r="5" fill="#3a2820"/>
  <circle cx="46" cy="12" r="3" fill="#5a4030"/>
  <circle cx="56" cy="12" r="3" fill="#5a4030"/>
  <!-- snout -->
  <rect x="52" y="20" width="10" height="8" fill="#5a4030"/>
  <rect x="56" y="24" width="4" height="3" fill="#1a1008"/>
  <!-- eyes -->
  <rect x="48" y="18" width="3" height="3" fill="#1a1008"/>
  <rect x="54" y="18" width="3" height="3" fill="#1a1008"/>
</svg>
