<svg xmlns="http://www.w3.org/2000/svg" viewBox="0 0 96 56" shape-rendering="crispEdges">
  <ellipse cx="48" cy="50" rx="34" ry="5" fill="#0a0804" opacity="0.4"/>
  <rect x="20" y="38" width="8" height="12" fill="#2a1a0c"/><rect x="34" y="38" width="8" height="12" fill="#2a1a0c"/>
  <rect x="52" y="38" width="8" height="12" fill="#2a1a0c"/><rect x="66" y="38" width="8" height="12" fill="#2a1a0c"/>
  <rect x="12" y="20" width="68" height="22" fill="#6b4423"/><rect x="16" y="14" width="56" height="10" fill="#8a5a34"/>
  <rect x="24" y="6" width="28" height="12" fill="#5c3820"/><rect x="28" y="2" width="18" height="8" fill="#7a5030"/>
  <rect x="70" y="18" width="18" height="16" fill="#5c3820"/><rect x="84" y="22" width="8" height="8" fill="#3d2818"/>
  <rect x="74" y="10" width="5" height="10" fill="#d4c090"/><rect x="82" y="12" width="5" height="8" fill="#d4c090"/>
  <rect x="76" y="22" width="4" height="4" fill="#1a1008"/><rect x="6" y="24" width="8" height="5" fill="#4a3018"/>
</svg>