<svg xmlns="http://www.w3.org/2000/svg" viewBox="0 0 64 48" shape-rendering="crispEdges">
  <rect width="64" height="48" fill="none"/>
  <ellipse cx="32" cy="42" rx="18" ry="4" fill="#1a1208" opacity="0.3"/>
  <!-- legs -->
  <rect x="16" y="32" width="4" height="12" fill="#5a4020"/>
  <rect x="26" y="32" width="4" height="12" fill="#5a4020"/>
  <rect x="36" y="32" width="4" height="12" fill="#5a4020"/>
  <rect x="46" y="32" width="4" height="12" fill="#5a4020"/>
  <!-- body -->
  <rect x="14" y="20" width="36" height="14" fill="#8b6530"/>
  <rect x="18" y="18" width="28" height="6" fill="#9a7440"/>
  <!-- neck + head -->
  <rect x="44" y="14" width="10" height="12" fill="#7a5528"/>
  <rect x="50" y="12" width="10" height="10" fill="#8b6530"/>
  <!-- antlers -->
  <rect x="52" y="2" width="3" height="10" fill="#c8a868"/>
  <rect x="56" y="4" width="3" height="8" fill="#c8a868"/>
  <rect x="50" y="4" width="6" height="3" fill="#c8a868"/>
  <rect x="58" y="6" width="5" height="3" fill="#c8a868"/>
  <!-- ear -->
  <rect x="48" y="10" width="4" height="5" fill="#6a4820"/>
  <!-- eye -->
  <rect x="54" y="16" width="3" height="3" fill="#1a1008"/>
  <!-- white tail -->
  <rect x="10" y="22" width="6" height="6" fill="#e8e0d0"/>
</svg>
